<?xml version="1.0" standalone="no"?>
<!DOCTYPE svg PUBLIC "-//W3C//DTD SVG 20010904//EN"
 "http://www.w3.org/TR/2001/REC-SVG-20010904/DTD/svg10.dtd">
<svg version="1.0" xmlns="http://www.w3.org/2000/svg"
 width="640.000000pt" height="640.000000pt" viewBox="0 0 640.000000 640.000000"
 preserveAspectRatio="xMidYMid meet">
<metadata>
Created by potrace 1.11, written by Peter Selinger 2001-2013
</metadata>
<g transform="translate(0.000000,640.000000) scale(0.100000,-0.100000)"
fill="#000000" stroke="none">
<path d="M1190 5369 c-173 -22 -300 -150 -340 -342 -15 -73 -15 -249 0 -342
33 -209 134 -474 260 -679 l39 -65 -23 -18 c-13 -10 -106 -90 -207 -177 -223
-194 -535 -499 -754 -739 l-163 -179 93 -146 c214 -337 378 -546 599 -767 227
-226 413 -363 663 -488 114 -57 284 -130 290 -123 2 2 -3 43 -12 91 -8 48 -15
111 -15 140 l0 53 -47 17 c-27 9 -158 55 -293 101 -135 46 -240 83 -234 84 16
0 374 -104 478 -140 49 -16 91 -28 93 -26 2 2 7 26 12 54 l8 51 -76 54 c-151
109 -410 243 -639 332 -39 16 -70 30 -68 32 8 9 296 -112 428 -179 76 -38 187
-103 248 -144 86 -57 112 -70 116 -59 4 8 1 22 -6 30 -28 34 -378 243 -547
329 -40 20 -73 39 -73 42 0 15 466 -244 613 -340 22 -15 27 -15 27 -4 0 14
-182 139 -320 219 -41 24 -183 98 -315 166 -132 67 -236 123 -232 123 5 0 117
-54 250 -120 243 -120 466 -247 565 -322 34 -25 57 -37 63 -31 18 18 -318 242
-737 493 -363 218 -372 227 -34 37 336 -188 550 -322 713 -446 38 -28 70 -51
71 -51 2 0 6 7 10 15 7 19 -87 137 -232 289 -110 115 -109 114 24 -19 77 -77
159 -162 181 -188 l42 -49 27 54 c41 82 134 213 249 352 58 69 107 126 110
126 2 0 12 -26 21 -57 9 -32 18 -61 21 -66 9 -16 43 16 87 82 55 82 90 157
109 229 l13 53 32 -68 c17 -37 42 -110 56 -162 14 -51 27 -96 30 -98 6 -6 152
34 185 52 15 7 50 34 78 59 28 25 54 46 57 46 3 0 6 -56 6 -125 l0 -125 33 -1
c53 -1 197 -16 202 -21 3 -2 -9 -46 -26 -97 -17 -51 -27 -96 -23 -100 5 -4 50
-25 99 -46 50 -20 102 -43 116 -51 l25 -13 -12 -93 c-11 -90 -11 -94 9 -110
20 -15 25 -14 101 29 487 270 1105 436 1661 448 l180 4 -149 -9 c-599 -34
-1151 -203 -1653 -505 l-54 -32 45 -37 45 -37 113 30 c775 201 1550 260 2271
170 121 -15 175 -18 190 -11 28 13 201 156 334 275 117 106 112 85 57 257 -87
267 -239 509 -524 835 -212 242 -290 353 -329 472 -11 33 -26 72 -32 86 -10
22 -5 33 44 103 104 150 164 279 213 455 35 128 44 332 20 441 -74 335 -326
453 -644 303 -94 -44 -228 -137 -318 -219 l-71 -65 -24 25 c-13 14 -60 54
-104 89 -483 377 -1003 481 -1587 315 -319 -90 -692 -284 -1053 -549 -38 -28
-72 -51 -75 -51 -12 1 -135 187 -180 272 -68 130 -90 211 -97 346 -7 131 4
119 -138 152 -103 23 -184 29 -265 19z m1922 -1429 c70 -214 150 -320 242
-320 36 0 95 31 131 70 33 35 235 141 304 160 83 22 143 -22 216 -161 20 -38
38 -69 40 -69 22 0 251 -78 296 -101 118 -59 185 -161 231 -349 17 -71 27 -94
43 -101 11 -4 85 -33 165 -65 328 -128 556 -267 764 -463 l89 -84 -299 7
c-442 10 -585 25 -886 96 -263 62 -322 105 -274 198 l14 27 -147 1 c-122 1
-162 5 -241 26 -186 50 -332 119 -427 202 -41 36 -43 40 -29 60 52 71 135 250
123 262 -2 2 -52 -22 -112 -54 -132 -68 -144 -85 -121 -163 l14 -51 -121 -58
c-195 -93 -224 -121 -288 -283 l-29 -72 6 110 c14 277 56 648 110 970 28 169
78 412 96 465 11 34 11 33 35 -65 13 -55 37 -143 55 -195z m-227 193 c-50
-135 -86 -223 -207 -507 -191 -451 -281 -688 -309 -810 l-13 -59 -27 119 c-17
76 -40 144 -63 189 -44 84 -56 145 -57 279 l0 101 -18 -57 c-51 -159 -179
-274 -362 -324 -86 -24 -299 -25 -381 -2 -32 9 -58 14 -58 11 0 -3 25 -33 55
-66 l55 -62 -38 -8 c-68 -16 -427 -1 -536 22 -55 11 -101 20 -102 18 -1 -1 41
-40 93 -87 l95 -85 -73 -7 c-96 -10 -347 6 -576 37 -100 14 -194 25 -210 25
-27 1 -27 2 27 51 75 69 292 232 419 314 252 163 613 353 1023 538 l187 84 58
-21 c49 -17 80 -20 203 -20 122 1 160 5 240 27 213 56 375 148 515 292 50 51
91 93 91 94 1 0 -13 -38 -31 -86z m-943 -1205 c108 -32 198 -189 198 -344 0
-31 -2 -33 -52 -43 -196 -43 -324 -15 -375 83 -21 37 -23 169 -5 233 11 38 18
44 65 62 60 23 113 26 169 9z m1758 -133 c36 -9 87 -23 114 -31 l48 -16 -4
-84 c-8 -151 -86 -262 -210 -299 -109 -32 -267 -13 -405 50 -71 31 -70 26 -28
141 44 117 115 200 201 234 61 24 192 26 284 5z m-3050 -271 c0 -2 -9 0 -20 6
-11 6 -20 13 -20 16 0 2 9 0 20 -6 11 -6 20 -13 20 -16z m246 -290 c18 -14 18
-14 -6 -3 -31 14 -36 19 -24 19 6 0 19 -7 30 -16z m64 -29 c17 -9 30 -18 30
-21 0 -4 -59 23 -69 32 -10 9 13 3 39 -11z m55 -405 c13 -5 14 -9 5 -9 -8 0
-24 4 -35 9 -13 5 -14 9 -5 9 8 0 24 -4 35 -9z"/>
<path d="M1780 2902 c-43 -17 -46 -20 -57 -72 -24 -118 -12 -192 42 -239 59
-51 150 -63 285 -38 l65 13 -2 61 c-6 163 -115 293 -243 292 -25 0 -65 -8 -90
-17z m155 -55 c26 -20 10 -37 -34 -37 -46 0 -72 23 -44 39 25 14 56 14 78 -2z"/>
<path d="M3495 2789 c-67 -8 -122 -38 -172 -92 -46 -50 -64 -82 -99 -172 -28
-76 -30 -73 87 -117 77 -29 94 -32 204 -33 116 0 122 1 175 31 98 55 155 161
148 276 l-3 52 -74 23 c-88 28 -197 41 -266 32z m103 -81 c19 -19 14 -27 -27
-38 -40 -11 -97 -4 -119 13 -11 9 -11 13 4 24 22 16 126 17 142 1z"/>
<path d="M1990 1819 c-41 -33 -118 -87 -171 -121 -114 -73 -118 -80 -126 -240
-5 -91 -2 -117 17 -180 37 -121 37 -121 143 -156 249 -83 458 -79 556 11 52
48 114 242 115 365 1 70 0 73 -31 97 -34 27 -48 62 -58 140 -10 81 -14 94 -34
105 -14 7 -327 44 -335 39 -1 0 -35 -27 -76 -60z m180 -117 c28 -13 36 -24 38
-50 3 -30 0 -34 -40 -52 -53 -24 -114 -25 -168 -4 -49 20 -65 45 -50 75 26 47
152 65 220 31z"/>
<path d="M4940 1824 c-503 -28 -957 -93 -1385 -200 -137 -34 -131 -30 -95 -61
l32 -27 132 23 c383 67 667 103 966 122 183 12 697 5 820 -11 70 -9 71 -9
-295 6 -266 10 -740 -19 -1085 -67 -168 -24 -457 -75 -489 -87 l-22 -8 20 -18
c19 -17 47 -19 408 -21 445 -2 548 -10 1183 -96 l85 -12 105 48 c126 58 251
126 382 209 116 73 232 156 226 161 -22 23 -764 52 -988 39z"/>
<path d="M3613 1453 l-33 -4 28 -35 27 -34 96 0 c197 0 567 -41 943 -104 l195
-32 151 52 c83 28 153 54 156 57 8 8 -34 15 -216 36 -216 26 -456 48 -660 61
-156 9 -618 11 -687 3z"/>
<path d="M3660 1351 c0 -2 12 -24 26 -48 14 -25 23 -47 20 -50 -3 -3 -109 -29
-237 -59 -227 -52 -409 -101 -419 -111 -3 -3 193 -3 435 0 500 6 738 25 1040
83 114 22 297 65 293 70 -7 6 -446 62 -658 84 -204 20 -500 39 -500 31z"/>
</g>
</svg>
